<mxfile host="65bd71144e">
    <diagram name="Page-1" id="Ld-aAZMJW7dczljbfGay">
        <mxGraphModel dx="1047" dy="802" grid="1" gridSize="10" guides="1" tooltips="1" connect="1" arrows="1" fold="1" page="1" pageScale="1" pageWidth="827" pageHeight="1169" math="0" shadow="0">
            <root>
                <mxCell id="0"/>
                <mxCell id="1" parent="0"/>
                <mxCell id="6rPOjHN5C-XUqdba0Vjc-2" value="" style="swimlane;startSize=0;" parent="1" vertex="1">
                    <mxGeometry x="130" y="60" width="450" height="650" as="geometry"/>
                </mxCell>
                <mxCell id="2" style="edgeStyle=none;html=1;exitX=0;exitY=0.5;exitDx=0;exitDy=0;endArrow=none;endFill=0;" edge="1" parent="6rPOjHN5C-XUqdba0Vjc-2" source="6rPOjHN5C-XUqdba0Vjc-4">
                    <mxGeometry relative="1" as="geometry">
                        <mxPoint x="-30" y="300" as="targetPoint"/>
                    </mxGeometry>
                </mxCell>
                <mxCell id="10" style="edgeStyle=none;html=1;exitX=1;exitY=0.5;exitDx=0;exitDy=0;endArrow=none;endFill=0;" edge="1" parent="6rPOjHN5C-XUqdba0Vjc-2" source="6rPOjHN5C-XUqdba0Vjc-4">
                    <mxGeometry relative="1" as="geometry">
                        <mxPoint x="480" y="110" as="targetPoint"/>
                    </mxGeometry>
                </mxCell>
                <mxCell id="6rPOjHN5C-XUqdba0Vjc-4" value="Se connecter" style="ellipse;whiteSpace=wrap;html=1;" parent="6rPOjHN5C-XUqdba0Vjc-2" vertex="1">
                    <mxGeometry x="120" y="210" width="120" height="60" as="geometry"/>
                </mxCell>
                <mxCell id="4" style="edgeStyle=none;html=1;exitX=0;exitY=0.5;exitDx=0;exitDy=0;endArrow=none;endFill=0;" edge="1" parent="6rPOjHN5C-XUqdba0Vjc-2" source="6rPOjHN5C-XUqdba0Vjc-5">
                    <mxGeometry relative="1" as="geometry">
                        <mxPoint x="-20" y="500" as="targetPoint"/>
                    </mxGeometry>
                </mxCell>
                <mxCell id="8" style="edgeStyle=none;html=1;exitX=1;exitY=0.5;exitDx=0;exitDy=0;endArrow=none;endFill=0;" edge="1" parent="6rPOjHN5C-XUqdba0Vjc-2" source="6rPOjHN5C-XUqdba0Vjc-5">
                    <mxGeometry relative="1" as="geometry">
                        <mxPoint x="480" y="260" as="targetPoint"/>
                    </mxGeometry>
                </mxCell>
                <mxCell id="6rPOjHN5C-XUqdba0Vjc-5" value="Créer un dossier candidat" style="ellipse;whiteSpace=wrap;html=1;" parent="6rPOjHN5C-XUqdba0Vjc-2" vertex="1">
                    <mxGeometry x="150" y="350" width="120" height="60" as="geometry"/>
                </mxCell>
                <mxCell id="5" style="edgeStyle=none;html=1;exitX=0;exitY=0.5;exitDx=0;exitDy=0;endArrow=none;endFill=0;" edge="1" parent="6rPOjHN5C-XUqdba0Vjc-2" source="6rPOjHN5C-XUqdba0Vjc-6">
                    <mxGeometry relative="1" as="geometry">
                        <mxPoint x="-20" y="540" as="targetPoint"/>
                    </mxGeometry>
                </mxCell>
                <mxCell id="6rPOjHN5C-XUqdba0Vjc-6" value="accéder à la carte des recherche" style="ellipse;whiteSpace=wrap;html=1;" parent="6rPOjHN5C-XUqdba0Vjc-2" vertex="1">
                    <mxGeometry x="145" y="490" width="120" height="60" as="geometry"/>
                </mxCell>
                <mxCell id="6" style="edgeStyle=none;html=1;exitX=0;exitY=0.5;exitDx=0;exitDy=0;endArrow=none;endFill=0;" edge="1" parent="6rPOjHN5C-XUqdba0Vjc-2" source="6rPOjHN5C-XUqdba0Vjc-7">
                    <mxGeometry relative="1" as="geometry">
                        <mxPoint x="-20" y="560" as="targetPoint"/>
                    </mxGeometry>
                </mxCell>
                <mxCell id="6rPOjHN5C-XUqdba0Vjc-7" value="télécharger attestation" style="ellipse;whiteSpace=wrap;html=1;" parent="6rPOjHN5C-XUqdba0Vjc-2" vertex="1">
                    <mxGeometry x="140" y="560" width="120" height="60" as="geometry"/>
                </mxCell>
                <mxCell id="3" style="edgeStyle=none;html=1;exitX=0;exitY=0.5;exitDx=0;exitDy=0;endArrow=none;endFill=0;" edge="1" parent="6rPOjHN5C-XUqdba0Vjc-2" source="6rPOjHN5C-XUqdba0Vjc-8">
                    <mxGeometry relative="1" as="geometry">
                        <mxPoint x="-30" y="280" as="targetPoint"/>
                    </mxGeometry>
                </mxCell>
                <mxCell id="6rPOjHN5C-XUqdba0Vjc-8" value="accéder au information complémentaire" style="ellipse;whiteSpace=wrap;html=1;" parent="6rPOjHN5C-XUqdba0Vjc-2" vertex="1">
                    <mxGeometry x="30" y="150" width="120" height="70" as="geometry"/>
                </mxCell>
                <mxCell id="12" style="edgeStyle=none;html=1;exitX=0;exitY=0.5;exitDx=0;exitDy=0;endArrow=none;endFill=0;" edge="1" parent="6rPOjHN5C-XUqdba0Vjc-2" source="11">
                    <mxGeometry relative="1" as="geometry">
                        <mxPoint x="-20" y="520" as="targetPoint"/>
                    </mxGeometry>
                </mxCell>
                <mxCell id="13" style="edgeStyle=none;html=1;exitX=1;exitY=0.5;exitDx=0;exitDy=0;endArrow=none;endFill=0;" edge="1" parent="6rPOjHN5C-XUqdba0Vjc-2" source="11">
                    <mxGeometry relative="1" as="geometry">
                        <mxPoint x="480" y="280" as="targetPoint"/>
                    </mxGeometry>
                </mxCell>
                <mxCell id="11" value="gérer dossier candidat" style="ellipse;whiteSpace=wrap;html=1;" vertex="1" parent="6rPOjHN5C-XUqdba0Vjc-2">
                    <mxGeometry x="152.5" y="420" width="120" height="60" as="geometry"/>
                </mxCell>
                <mxCell id="15" value="Parcoursup" style="text;html=1;align=center;verticalAlign=middle;resizable=0;points=[];autosize=1;strokeColor=none;fillColor=none;" vertex="1" parent="6rPOjHN5C-XUqdba0Vjc-2">
                    <mxGeometry x="185" width="80" height="30" as="geometry"/>
                </mxCell>
                <mxCell id="17" style="edgeStyle=none;html=1;exitX=0;exitY=0.5;exitDx=0;exitDy=0;endArrow=none;endFill=0;" edge="1" parent="6rPOjHN5C-XUqdba0Vjc-2" source="16">
                    <mxGeometry relative="1" as="geometry">
                        <mxPoint x="-30" y="310" as="targetPoint"/>
                    </mxGeometry>
                </mxCell>
                <mxCell id="16" value="Changer la langue" style="ellipse;whiteSpace=wrap;html=1;" vertex="1" parent="6rPOjHN5C-XUqdba0Vjc-2">
                    <mxGeometry x="60" y="280" width="115" height="60" as="geometry"/>
                </mxCell>
                <mxCell id="22" style="edgeStyle=none;html=1;exitX=0;exitY=0.5;exitDx=0;exitDy=0;endArrow=none;endFill=0;" edge="1" parent="6rPOjHN5C-XUqdba0Vjc-2" source="19">
                    <mxGeometry relative="1" as="geometry">
                        <mxPoint x="-20" y="70" as="targetPoint"/>
                    </mxGeometry>
                </mxCell>
                <mxCell id="19" value="déposer un offre" style="ellipse;whiteSpace=wrap;html=1;" vertex="1" parent="6rPOjHN5C-XUqdba0Vjc-2">
                    <mxGeometry x="152.5" y="50" width="120" height="70" as="geometry"/>
                </mxCell>
                <mxCell id="6rPOjHN5C-XUqdba0Vjc-3" value="Etudiant" style="shape=umlActor;verticalLabelPosition=bottom;verticalAlign=top;html=1;outlineConnect=0;" parent="1" vertex="1">
                    <mxGeometry x="60" y="570" width="30" height="60" as="geometry"/>
                </mxCell>
                <mxCell id="Ca6PlRF5rk4T8O6qITH9-8" value="visiteur" style="shape=umlActor;verticalLabelPosition=bottom;verticalAlign=top;html=1;outlineConnect=0;" parent="1" vertex="1">
                    <mxGeometry x="60" y="330" width="30" height="60" as="geometry"/>
                </mxCell>
                <mxCell id="7" value="" style="edgeStyle=none;orthogonalLoop=1;jettySize=auto;html=1;endArrow=block;endFill=0;" edge="1" parent="1">
                    <mxGeometry width="100" relative="1" as="geometry">
                        <mxPoint x="74.5" y="540" as="sourcePoint"/>
                        <mxPoint x="74.5" y="430" as="targetPoint"/>
                        <Array as="points"/>
                    </mxGeometry>
                </mxCell>
                <mxCell id="9" value="FranceConnect" style="shape=umlActor;verticalLabelPosition=bottom;verticalAlign=top;html=1;outlineConnect=0;" vertex="1" parent="1">
                    <mxGeometry x="620" y="130" width="30" height="60" as="geometry"/>
                </mxCell>
                <mxCell id="14" value="Base de donnée" style="shape=umlActor;verticalLabelPosition=bottom;verticalAlign=top;html=1;outlineConnect=0;" vertex="1" parent="1">
                    <mxGeometry x="630" y="290" width="30" height="60" as="geometry"/>
                </mxCell>
                <mxCell id="18" value="entrepreneur&lt;div&gt;et etablisement&lt;/div&gt;" style="shape=umlActor;verticalLabelPosition=bottom;verticalAlign=top;html=1;outlineConnect=0;" vertex="1" parent="1">
                    <mxGeometry x="60" y="100" width="30" height="60" as="geometry"/>
                </mxCell>
                <mxCell id="21" value="" style="edgeStyle=none;orthogonalLoop=1;jettySize=auto;html=1;endArrow=none;endFill=0;startArrow=block;startFill=0;" edge="1" parent="1">
                    <mxGeometry width="100" relative="1" as="geometry">
                        <mxPoint x="74.5" y="320" as="sourcePoint"/>
                        <mxPoint x="74.5" y="210" as="targetPoint"/>
                        <Array as="points"/>
                    </mxGeometry>
                </mxCell>
            </root>
        </mxGraphModel>
    </diagram>
</mxfile>